<svg version="1.1" id="Layer_1" xmlns="http://www.w3.org/2000/svg" xmlns:xlink="http://www.w3.org/1999/xlink" x="0px" y="0px"
	 width="100%" viewBox="0 0 1024 1024" enable-background="new 0 0 1024 1024" xml:space="preserve">
<path fill="#FEFEFE" opacity="1.000000" stroke="none"
	d="
M1025.000000,389.000000
	C1025.000000,601.333313 1025.000000,813.166687 1025.000000,1025.000000
	C683.666687,1025.000000 342.333344,1025.000000 1.000000,1025.000000
	C1.000000,683.666687 1.000000,342.333344 1.000000,1.000000
	C342.333344,1.000000 683.666687,1.000000 1025.000000,1.000000
	C1025.000000,130.166672 1025.000000,259.333344 1025.000000,389.000000
M541.619751,282.026093
	C548.166016,278.499725 554.712280,274.973358 560.264160,271.982635
	C554.711975,270.246704 543.822632,274.726898 540.656616,281.250885
	C540.500305,281.572968 541.043640,282.234589 541.225159,282.036804
	C540.964966,282.013885 540.704834,281.990967 540.444641,281.968079
	C540.723816,282.197662 541.002991,282.427246 541.619751,282.026093
M601.067078,270.534424
	C601.258118,270.570007 601.449097,270.605591 601.640198,270.641144
	C601.585754,270.266357 601.531372,269.891602 601.399841,268.794434
	C596.549377,255.507004 586.969299,248.007080 573.077087,246.177261
	C560.897156,244.572983 549.235779,246.793381 538.310547,252.333023
	C534.687256,254.170227 530.515442,256.281250 531.586304,261.549500
	C532.274475,264.934906 537.806824,266.858307 543.192261,265.956116
	C543.999756,265.820831 544.777405,265.495056 545.561951,265.236481
	C549.179871,264.043915 552.812012,262.891602 556.408997,261.638489
	C572.712524,255.958664 588.021790,255.440262 600.491516,269.988800
	C600.566101,270.075775 600.812195,270.015778 601.067078,270.534424
M421.982422,200.505249
	C393.657837,222.943604 373.080811,250.966522 361.013672,285.117462
	C360.136475,287.600037 359.353333,290.115814 358.526459,292.616150
	C358.087646,292.491028 357.648834,292.365906 357.210022,292.240784
	C358.983154,285.197449 359.954620,277.829559 362.654266,271.161316
	C387.807190,209.032822 434.361938,173.875534 500.030884,163.306335
	C507.928894,162.035172 508.323730,162.250244 509.250671,154.167236
	C509.476654,152.196854 509.565399,150.167618 509.373322,148.199005
	C507.338287,127.342766 494.795868,114.142609 477.151794,105.076836
	C463.829803,98.231789 449.303314,97.201157 434.776886,99.127441
	C409.348724,102.499359 389.345520,114.337807 377.481750,138.019867
	C376.348389,140.282288 374.548798,142.441620 372.553467,144.003799
	C360.377594,153.536697 350.707336,164.892685 345.552185,179.706635
	C341.851135,190.341995 341.992462,200.997437 344.616577,212.027969
	C350.138672,204.904633 355.024567,198.180954 360.342010,191.817902
	C379.943329,168.362213 403.262054,150.132950 433.059814,141.412216
	C438.255005,139.891769 443.740021,139.361450 449.091156,138.373840
	C445.034546,140.751221 440.712677,141.828583 436.557587,143.358765
	C394.227448,158.947479 364.509583,188.973862 342.143860,226.976257
	C334.193115,240.485626 331.002289,255.362030 334.966522,271.140076
	C335.373596,272.760223 335.490723,274.916412 334.748169,276.284027
	C331.035980,283.121033 331.559479,290.115570 333.607727,297.130981
	C338.851868,315.092590 351.076538,325.993103 368.614258,331.604919
	C375.341064,333.757416 375.845764,335.971588 371.755005,341.662262
	C364.669800,351.518433 357.281311,361.175476 350.592926,371.294739
	C316.884552,422.294556 291.690582,477.143494 276.491943,536.471619
	C276.029999,538.274780 274.981934,540.313110 273.566162,541.427612
	C257.317841,554.217896 247.240479,571.309265 239.987213,590.164368
	C231.818314,611.399597 224.351593,632.903992 216.438934,654.239136
	C199.998093,698.569031 178.127014,740.423889 157.520844,782.847107
	C146.720215,805.083130 134.830154,826.757507 128.433731,850.943359
	C121.808990,875.992371 120.168762,900.370239 133.209991,924.041443
	C134.791290,926.911682 136.314087,927.997375 139.640228,927.990295
	C195.009705,927.871887 250.379501,927.905945 305.946503,927.905945
	C292.745209,920.476318 288.374420,907.646667 285.453308,893.782837
	C284.045319,887.100403 281.695770,880.616455 279.772583,874.042603
	C272.322998,887.564636 268.448181,901.583679 266.210449,916.385498
	C264.258453,911.526611 262.491241,906.662354 262.142059,901.698364
	C260.875519,883.694092 266.159027,867.888367 279.026581,854.854797
	C280.301483,853.563293 281.636597,851.621521 281.668945,849.956848
	C281.742432,846.172852 281.022156,842.373352 280.644470,838.770325
	C270.585083,835.416870 260.639038,832.101257 250.525345,828.729736
	C256.147583,812.569641 262.633392,797.902283 271.136139,784.129333
	C272.418854,782.051575 273.277771,779.199097 273.086243,776.804626
	C271.375275,755.409973 269.412842,734.035156 267.469116,712.659485
	C264.936462,684.807373 262.240173,656.969421 259.847778,629.105347
	C258.893982,617.996643 265.507874,608.540955 276.149902,605.123047
	C279.263184,604.123169 282.571838,603.731628 285.850586,603.048828
	C286.116272,601.641113 286.404144,600.346741 286.601105,599.038635
	C293.257050,554.826233 304.685120,511.878357 320.746216,470.158661
	C331.837280,441.348907 345.237793,413.776276 364.157623,389.159302
	C364.866028,388.237579 365.380737,387.167023 365.985748,386.165833
	C366.452881,386.576447 366.919983,386.987030 367.387115,387.397644
	C349.812714,421.273438 331.925537,454.973267 319.737610,491.330383
	C307.510406,527.804504 297.720367,564.788391 293.060455,603.349670
	C302.816772,603.349670 312.212952,603.349670 321.721252,603.349670
	C322.487030,597.363098 323.214355,591.761536 323.918762,586.156982
	C328.660522,548.429626 336.477142,511.418793 349.609314,475.640625
	C355.847076,458.645996 362.326233,441.769806 373.199219,427.131927
	C373.376099,427.248749 373.552979,427.365570 373.538391,428.200012
	C350.091492,484.320068 333.458252,542.162109 329.140381,603.424744
	C341.420013,603.424744 353.521118,603.424744 365.822601,603.424744
	C373.834473,545.094177 381.492950,486.839752 402.806061,431.493011
	C391.773682,488.553589 377.762543,545.100037 373.728668,603.386169
	C381.723694,603.386169 389.287262,603.386169 396.944305,603.386169
	C401.254578,565.854919 404.953766,528.541077 416.075500,492.562439
	C416.614319,492.637787 417.153137,492.713135 417.691956,492.788483
	C413.168945,529.598267 408.645935,566.408020 404.102539,603.383667
	C419.273132,603.383667 433.499207,603.383667 448.263733,603.383667
	C443.342896,551.647522 444.213348,500.378448 451.084167,449.562042
	C451.607391,451.028656 452.276764,452.887360 452.934174,454.750305
	C459.169830,472.420258 466.645264,489.460388 479.719971,503.297333
	C496.073303,520.604065 519.038513,521.307373 535.188049,504.031006
	C542.907654,495.772766 549.111389,485.845642 554.728882,475.951721
	C559.470337,467.600708 562.374329,458.206482 565.850769,449.852631
	C573.247192,500.406799 573.087585,551.800964 568.832397,603.295410
	C585.351746,603.295410 601.074585,603.295410 617.449402,603.295410
	C613.913635,567.659180 610.420044,532.447510 606.926453,497.235809
	C607.500916,497.165009 608.075439,497.094238 608.649902,497.023438
	C618.704285,531.780579 621.359070,567.742126 624.647827,603.327881
	C631.398315,603.327881 637.636475,603.327881 644.025513,603.327881
	C639.272034,537.844910 627.067566,474.070099 609.786316,410.589874
	C611.128967,411.036377 611.833618,411.062836 611.951477,411.339325
	C638.082153,472.659607 643.421204,538.324707 652.088806,603.726074
	C662.977844,603.726074 673.934875,603.739746 684.891663,603.702271
	C685.851868,603.699036 686.810913,603.360352 688.106812,603.113403
	C683.350647,525.203186 662.873169,451.213196 634.929688,378.901550
	C655.750122,412.571747 666.702332,450.052887 676.423462,487.838409
	C686.194580,525.818237 691.659851,564.639893 695.418213,603.327026
	C705.606079,603.327026 715.152405,603.327026 725.040771,603.327026
	C724.222595,596.239319 723.641418,589.610962 722.668884,583.040588
	C716.767700,543.171021 707.344666,504.133087 695.436462,465.632538
	C682.247742,422.992004 665.730347,381.758759 645.101685,342.174835
	C642.479187,337.142609 642.758057,336.573242 648.056885,334.922791
	C649.324402,334.527924 650.590088,334.113312 651.823059,333.623413
	C671.230530,325.912170 679.468994,310.300476 675.093384,289.855621
	C674.858521,288.758270 675.572327,287.056122 676.415283,286.192810
	C683.673828,278.758667 686.670410,269.714386 687.141541,259.542114
	C687.872803,243.752579 682.634705,229.867447 674.123718,216.903915
	C673.176025,215.460480 672.402283,213.161697 672.859009,211.657791
	C675.823669,201.896210 675.289124,192.274368 672.459595,182.650864
	C667.348450,165.267181 655.813049,152.436218 642.185730,141.447250
	C620.480652,123.944504 596.155701,112.906311 567.542603,114.161156
	C557.482300,114.602364 547.763794,116.763321 539.211975,122.534096
	C532.966553,126.748528 530.106201,132.875793 528.759888,140.555374
	C550.121521,128.512390 571.583374,127.873192 593.722656,135.546860
	C563.974304,129.906769 537.296753,132.634171 519.179016,161.473328
	C520.448059,162.095627 520.865417,162.416565 521.328979,162.510910
	C545.724915,167.476959 567.559326,177.943192 587.116943,193.239944
	C611.920593,212.639893 632.212341,235.625549 643.356140,265.590149
	C645.668457,271.807526 646.739563,278.486511 648.382690,284.952728
	C647.880310,285.082336 647.377991,285.211914 646.875610,285.341492
	C646.254883,283.838776 645.713989,282.296997 645.000793,280.839508
	C639.316589,269.222687 634.211121,257.267365 627.740051,246.104614
	C619.383362,231.689026 609.276062,218.452774 595.968506,207.282883
	C595.701782,207.270950 595.435059,207.259018 595.168274,207.247086
	C595.274597,207.652893 595.380859,208.058701 595.758423,209.127884
	C607.694946,233.984100 614.233521,260.169830 612.975952,287.762024
	C612.000122,309.171600 610.028381,330.568970 607.607788,351.870453
	C605.015137,374.685944 596.505859,395.209381 580.874146,412.446686
	C567.222046,427.501038 551.400635,439.776337 533.754639,449.804504
	C517.169922,459.229523 500.762238,459.198059 483.941437,450.158386
	C470.013916,442.673553 457.787689,433.003754 446.311554,422.346954
	C427.767578,405.126923 414.670319,384.547577 411.016418,359.141418
	C408.036285,338.420197 405.727264,317.572174 404.056305,296.705444
	C403.185791,285.834625 403.517212,274.709076 404.746704,263.861938
	C407.214172,242.093414 413.911987,221.353653 422.479614,200.736755
	C422.440887,200.599533 422.402161,200.462296 422.363403,200.325058
	C422.206207,200.477524 422.049011,200.629990 421.891846,200.782455
	C422.082916,200.925537 422.273987,201.068619 421.982422,200.505249
M277.273315,657.068665
	C279.215454,678.282227 281.250153,699.487915 283.075775,720.711487
	C285.257721,746.076904 287.256348,771.458069 289.342529,796.831726
	C292.231995,831.976074 295.313812,867.106079 297.944183,902.269714
	C299.238556,919.573303 309.188629,929.417175 326.506989,929.397888
	C400.819916,929.315125 475.132812,929.191528 549.445740,929.188904
	C596.099182,929.187256 642.754089,929.189941 689.405212,929.570435
	C706.845825,929.712708 717.319092,920.320068 718.153198,903.100403
	C718.974609,886.143616 720.184448,869.198975 721.578735,852.278198
	C723.915649,823.918701 726.484436,795.577942 729.048828,767.237671
	C731.523132,739.893005 734.187683,712.565552 736.629333,685.218018
	C738.168335,667.980225 739.682739,650.733887 740.749268,633.463013
	C741.265930,625.096619 735.383362,619.359070 726.996277,618.888306
	C725.334900,618.795044 723.664978,618.840698 721.999023,618.840820
	C627.191162,618.848206 532.383362,618.857483 437.575531,618.866943
	C389.421814,618.871704 341.268127,618.872864 293.114410,618.885254
	C280.764709,618.888428 275.509949,624.255615 275.929199,636.714417
	C276.147491,643.199951 276.750122,649.672485 277.273315,657.068665
M852.499939,927.826660
	C860.830322,927.825378 869.162292,927.905701 877.489502,927.742920
	C878.889526,927.715515 880.888184,927.034058 881.562622,925.982666
	C888.865601,914.596924 893.874756,902.288269 893.892517,888.588379
	C893.919739,867.627197 888.650513,847.556396 880.276917,828.653137
	C868.779785,802.698669 855.903931,777.350830 843.454956,751.823059
	C821.884888,707.591858 801.617798,662.863159 786.765625,615.793945
	C780.774963,596.808472 773.194702,578.286377 762.189758,561.433899
	C751.915161,545.699951 737.638916,535.312622 720.237732,529.157410
	C724.440491,554.081299 728.596924,578.730225 732.807312,603.699036
	C732.996643,603.728821 733.630371,603.893982 734.269653,603.919617
	C746.763733,604.421204 759.221069,616.874817 757.048096,631.293274
	C755.513733,641.474182 754.980957,651.805908 753.994812,662.069641
	C752.132996,681.447205 750.261719,700.823914 748.403625,720.201843
	C746.593933,739.074768 744.710449,757.941528 743.108398,776.832153
	C742.923645,779.010254 743.851746,781.637146 745.080505,783.524170
	C754.193237,797.519165 760.507812,812.776794 766.481995,828.859253
	C757.078308,831.914551 748.092834,834.805969 739.133057,837.775024
	C737.777283,838.224243 736.046875,838.700500 735.343933,839.741150
	C733.374084,842.657471 734.754395,852.329041 737.345154,854.923523
	C747.333679,864.926025 753.575500,876.688416 754.701233,890.961609
	C755.410278,899.951660 754.866882,908.692017 750.104675,918.093445
	C748.139221,901.912415 744.132141,887.681274 737.374512,873.195679
	C736.476135,875.293640 735.842346,876.425659 735.495850,877.639587
	C733.312866,885.286987 730.945312,892.893738 729.112427,900.626221
	C726.475586,911.749817 721.473206,921.136353 711.445923,927.292480
	C711.347168,927.353149 711.514038,927.846619 711.510986,927.826172
	C758.211121,927.826172 804.855469,927.826172 852.499939,927.826660
M130.500854,937.690308
	C114.066971,937.690308 97.633087,937.690308 81.295044,937.690308
	C81.295044,942.202698 81.295044,946.112610 81.295044,950.157227
	C366.540741,950.157227 651.465698,950.157227 936.570557,950.157227
	C936.570557,945.948059 936.570557,942.034851 936.570557,937.934143
	C935.013855,937.859558 933.708191,937.744995 932.402222,937.741943
	C885.075134,937.631836 837.748047,937.436646 790.420959,937.447266
	C570.780945,937.496582 351.140961,937.603394 130.500854,937.690308
M492.813507,110.665245
	C504.980347,121.891113 512.649231,135.625336 515.918762,152.289383
	C518.166138,149.092712 519.624390,145.880508 520.977661,142.624695
	C523.642883,136.212418 525.742798,129.496185 529.074707,123.456360
	C531.015137,119.938957 531.399841,117.110329 529.814209,113.768669
	C527.249451,108.363747 524.597717,103.000122 521.982666,97.619072
	C522.412598,97.327957 522.842529,97.036842 523.272461,96.745728
	C527.531616,103.192986 531.790771,109.640251 536.115723,116.187050
	C558.249878,105.790443 581.057983,106.509727 604.770447,116.138710
	C591.551697,95.178207 575.064148,82.056831 549.888245,83.677330
	C547.479431,83.832382 544.672424,83.726181 542.629517,82.645851
	C532.076965,77.065460 521.839539,78.451408 511.404999,82.938164
	C509.447266,83.779968 506.577240,83.776100 504.567047,83.010414
	C492.572327,78.441612 480.538605,77.917473 468.442535,82.167152
	C461.898071,84.466438 455.934967,87.822716 451.472046,93.930008
	C467.466003,94.486824 480.845490,99.940475 492.813507,110.665245
M601.543945,289.927277
	C598.569031,288.202820 595.408447,286.731903 592.650085,284.711761
	C577.278198,273.453979 558.892334,273.113525 544.574646,284.281799
	C537.222168,290.016968 533.091187,297.847595 531.607178,307.191132
	C536.152954,302.117828 540.698730,297.044525 545.801697,291.349365
	C546.402283,303.191528 553.368530,310.045319 562.354858,308.775696
	C571.948853,307.420166 576.048401,299.526306 573.135620,285.878174
	C579.932739,289.207916 585.882751,292.122650 592.286682,295.259766
	C589.030212,299.134460 586.194824,302.508209 582.724487,306.637451
	C592.871216,304.143097 598.311401,296.946045 605.681396,290.685181
	C603.796387,290.303589 603.039734,290.150421 601.543945,289.927277
M461.765320,278.598267
	C447.922302,273.224213 435.452942,276.317749 423.703369,284.565430
	C420.070831,287.115295 416.107208,289.193512 412.349518,291.454987
	C417.931641,298.240936 426.806885,304.687256 433.958099,306.346680
	C430.444977,302.335327 427.592865,299.078796 424.044952,295.027710
	C430.576111,291.910553 436.477173,289.094147 443.332336,285.822327
	C440.696655,298.769470 444.643372,307.193420 452.917786,308.784607
	C461.917236,310.515198 469.315735,304.333771 471.677551,292.227203
	C476.362335,297.521759 480.627838,302.342499 484.893372,307.163239
	C482.303223,293.731934 474.748047,284.410095 461.765320,278.598267
M463.580292,383.929840
	C489.333069,399.310242 516.105957,399.753998 543.441467,388.978943
	C548.132812,387.129730 552.314209,383.894989 556.525574,381.001038
	C557.321838,380.453827 557.778198,378.054901 557.253967,377.293854
	C556.628845,376.386322 554.744934,375.909668 553.468933,376.013733
	C552.278748,376.110840 551.126343,377.148254 550.033936,377.885345
	C544.849487,381.383667 539.403442,382.293091 533.029602,381.674255
	C526.214111,381.012573 519.221497,382.233276 512.302429,382.551636
	C509.519867,382.679657 506.718597,382.739716 503.941254,382.573334
	C498.169769,382.227509 492.280548,380.745972 486.673431,381.490784
	C478.450165,382.583069 471.250061,381.859131 464.617767,376.527863
	C463.614624,375.721527 461.181885,376.693695 459.410431,376.843170
	C459.824371,378.434845 460.053314,380.110931 460.725586,381.584747
	C461.095154,382.394867 462.211090,382.864532 463.580292,383.929840
M429.978760,250.349167
	C422.691528,254.571198 417.793610,260.688660 414.773895,270.121735
	C417.131470,268.401367 418.582947,267.554047 419.779816,266.434479
	C427.475555,259.235626 436.431152,256.288635 446.777435,258.732452
	C453.532959,260.328156 460.151215,262.496796 466.877075,264.229950
	C470.054413,265.048676 473.322021,265.768982 476.581238,265.950409
	C480.142487,266.148651 484.521881,265.452118 484.830444,261.428497
	C485.023438,258.911682 482.517609,255.001495 480.131500,253.665176
	C464.313568,244.806564 447.805573,242.140244 429.978760,250.349167
M528.435486,353.323608
	C522.231567,352.895233 516.397888,353.877258 511.884949,358.546387
	C509.291504,361.229614 507.203796,360.615265 504.660400,358.561493
	C500.275482,355.020782 495.438446,352.530457 489.512909,353.751007
	C484.589783,354.765137 481.716339,353.083862 481.787689,346.518829
	C479.815125,353.527649 481.409882,357.536591 486.993835,361.842133
	C500.883209,372.551605 509.407440,373.291992 524.125366,364.910492
	C530.322144,361.381592 535.267883,356.906586 535.388184,349.889954
	C533.339233,351.127930 531.320129,352.347900 528.435486,353.323608
M521.689026,415.312134
	C523.533813,413.606598 525.378540,411.901093 527.282104,410.141235
	C514.107544,410.141235 501.600372,410.141235 489.224213,410.141235
	C497.754089,420.097443 509.268311,422.174805 521.689026,415.312134
M462.997009,275.222015
	C466.565552,277.136200 470.134125,279.050354 473.911652,281.076599
	C471.226868,274.312103 461.966400,270.348785 454.940430,272.517029
	C457.241486,273.295563 459.751862,274.144928 462.997009,275.222015
z"/>
<path fill="#000000" opacity="1.000000" stroke="none"
	d="
M277.226227,656.609802
	C276.750122,649.672485 276.147491,643.199951 275.929199,636.714417
	C275.509949,624.255615 280.764709,618.888428 293.114410,618.885254
	C341.268127,618.872864 389.421814,618.871704 437.575531,618.866943
	C532.383362,618.857483 627.191162,618.848206 721.999023,618.840820
	C723.664978,618.840698 725.334900,618.795044 726.996277,618.888306
	C735.383362,619.359070 741.265930,625.096619 740.749268,633.463013
	C739.682739,650.733887 738.168335,667.980225 736.629333,685.218018
	C734.187683,712.565552 731.523132,739.893005 729.048828,767.237671
	C726.484436,795.577942 723.915649,823.918701 721.578735,852.278198
	C720.184448,869.198975 718.974609,886.143616 718.153198,903.100403
	C717.319092,920.320068 706.845825,929.712708 689.405212,929.570435
	C642.754089,929.189941 596.099182,929.187256 549.445740,929.188904
	C475.132812,929.191528 400.819916,929.315125 326.506989,929.397888
	C309.188629,929.417175 299.238556,919.573303 297.944183,902.269714
	C295.313812,867.106079 292.231995,831.976074 289.342529,796.831726
	C287.256348,771.458069 285.257721,746.076904 283.075775,720.711487
	C281.250153,699.487915 279.215454,678.282227 277.226227,656.609802
M522.899902,750.535522
	C520.929443,749.324829 519.063354,747.880554 516.969849,746.945251
	C509.291382,743.514587 502.020172,744.771545 495.389587,749.595642
	C488.867859,754.340454 485.647339,760.869629 486.556793,768.985474
	C487.687073,779.072327 495.254486,786.770020 505.508575,788.697937
	C513.814697,790.259644 523.426819,785.189148 527.812561,776.932373
	C532.452332,768.197327 530.819153,758.529480 522.899902,750.535522
z"/>
<path fill="#020202" opacity="1.000000" stroke="none"
	d="
M372.704498,426.732422
	C362.326233,441.769806 355.847076,458.645996 349.609314,475.640625
	C336.477142,511.418793 328.660522,548.429626 323.918762,586.156982
	C323.214355,591.761536 322.487030,597.363098 321.721252,603.349670
	C312.212952,603.349670 302.816772,603.349670 293.060455,603.349670
	C297.720367,564.788391 307.510406,527.804504 319.737610,491.330383
	C331.925537,454.973267 349.812714,421.273438 367.387115,387.397644
	C366.919983,386.987030 366.452881,386.576447 365.985748,386.165833
	C365.380737,387.167023 364.866028,388.237579 364.157623,389.159302
	C345.237793,413.776276 331.837280,441.348907 320.746216,470.158661
	C304.685120,511.878357 293.257050,554.826233 286.601105,599.038635
	C286.404144,600.346741 286.116272,601.641113 285.850586,603.048828
	C282.571838,603.731628 279.263184,604.123169 276.149902,605.123047
	C265.507874,608.540955 258.893982,617.996643 259.847778,629.105347
	C262.240173,656.969421 264.936462,684.807373 267.469116,712.659485
	C269.412842,734.035156 271.375275,755.409973 273.086243,776.804626
	C273.277771,779.199097 272.418854,782.051575 271.136139,784.129333
	C262.633392,797.902283 256.147583,812.569641 250.525345,828.729736
	C260.639038,832.101257 270.585083,835.416870 280.644470,838.770325
	C281.022156,842.373352 281.742432,846.172852 281.668945,849.956848
	C281.636597,851.621521 280.301483,853.563293 279.026581,854.854797
	C266.159027,867.888367 260.875519,883.694092 262.142059,901.698364
	C262.491241,906.662354 264.258453,911.526611 266.210449,916.385498
	C268.448181,901.583679 272.322998,887.564636 279.772583,874.042603
	C281.695770,880.616455 284.045319,887.100403 285.453308,893.782837
	C288.374420,907.646667 292.745209,920.476318 305.946503,927.905945
	C250.379501,927.905945 195.009705,927.871887 139.640228,927.990295
	C136.314087,927.997375 134.791290,926.911682 133.209991,924.041443
	C120.168762,900.370239 121.808990,875.992371 128.433731,850.943359
	C134.830154,826.757507 146.720215,805.083130 157.520844,782.847107
	C178.127014,740.423889 199.998093,698.569031 216.438934,654.239136
	C224.351593,632.903992 231.818314,611.399597 239.987213,590.164368
	C247.240479,571.309265 257.317841,554.217896 273.566162,541.427612
	C274.981934,540.313110 276.029999,538.274780 276.491943,536.471619
	C291.690582,477.143494 316.884552,422.294556 350.592926,371.294739
	C357.281311,361.175476 364.669800,351.518433 371.755005,341.662262
	C375.845764,335.971588 375.341064,333.757416 368.614258,331.604919
	C351.076538,325.993103 338.851868,315.092590 333.607727,297.130981
	C331.559479,290.115570 331.035980,283.121033 334.748169,276.284027
	C335.490723,274.916412 335.373596,272.760223 334.966522,271.140076
	C331.002289,255.362030 334.193115,240.485626 342.143860,226.976257
	C364.509583,188.973862 394.227448,158.947479 436.557587,143.358765
	C440.712677,141.828583 445.034546,140.751221 449.091156,138.373840
	C443.740021,139.361450 438.255005,139.891769 433.059814,141.412216
	C403.262054,150.132950 379.943329,168.362213 360.342010,191.817902
	C355.024567,198.180954 350.138672,204.904633 344.616577,212.027969
	C341.992462,200.997437 341.851135,190.341995 345.552185,179.706635
	C350.707336,164.892685 360.377594,153.536697 372.553467,144.003799
	C374.548798,142.441620 376.348389,140.282288 377.481750,138.019867
	C389.345520,114.337807 409.348724,102.499359 434.776886,99.127441
	C449.303314,97.201157 463.829803,98.231789 477.151794,105.076836
	C494.795868,114.142609 507.338287,127.342766 509.373322,148.199005
	C509.565399,150.167618 509.476654,152.196854 509.250671,154.167236
	C508.323730,162.250244 507.928894,162.035172 500.030884,163.306335
	C434.361938,173.875534 387.807190,209.032822 362.654266,271.161316
	C359.954620,277.829559 358.983154,285.197449 357.210022,292.240784
	C357.648834,292.365906 358.087646,292.491028 358.526459,292.616150
	C359.353333,290.115814 360.136475,287.600037 361.013672,285.117462
	C373.080811,250.966522 393.657837,222.943604 422.182190,200.847107
	C422.381958,201.188950 422.300385,201.161148 422.300385,201.161148
	C413.911987,221.353653 407.214172,242.093414 404.746704,263.861938
	C403.517212,274.709076 403.185791,285.834625 404.056305,296.705444
	C405.727264,317.572174 408.036285,338.420197 411.016418,359.141418
	C414.670319,384.547577 427.767578,405.126923 446.311554,422.346954
	C457.787689,433.003754 470.013916,442.673553 483.941437,450.158386
	C500.762238,459.198059 517.169922,459.229523 533.754639,449.804504
	C551.400635,439.776337 567.222046,427.501038 580.874146,412.446686
	C596.505859,395.209381 605.015137,374.685944 607.607788,351.870453
	C610.028381,330.568970 612.000122,309.171600 612.975952,287.762024
	C614.233521,260.169830 607.694946,233.984100 595.788086,208.649841
	C595.817749,208.171783 596.133301,207.862915 596.133301,207.862915
	C609.276062,218.452774 619.383362,231.689026 627.740051,246.104614
	C634.211121,257.267365 639.316589,269.222687 645.000793,280.839508
	C645.713989,282.296997 646.254883,283.838776 646.875610,285.341492
	C647.377991,285.211914 647.880310,285.082336 648.382690,284.952728
	C646.739563,278.486511 645.668457,271.807526 643.356140,265.590149
	C632.212341,235.625549 611.920593,212.639893 587.116943,193.239944
	C567.559326,177.943192 545.724915,167.476959 521.328979,162.510910
	C520.865417,162.416565 520.448059,162.095627 519.179016,161.473328
	C537.296753,132.634171 563.974304,129.906769 593.722656,135.546860
	C571.583374,127.873192 550.121521,128.512390 528.759888,140.555374
	C530.106201,132.875793 532.966553,126.748528 539.211975,122.534096
	C547.763794,116.763321 557.482300,114.602364 567.542603,114.161156
	C596.155701,112.906311 620.480652,123.944504 642.185730,141.447250
	C655.813049,152.436218 667.348450,165.267181 672.459595,182.650864
	C675.289124,192.274368 675.823669,201.896210 672.859009,211.657791
	C672.402283,213.161697 673.176025,215.460480 674.123718,216.903915
	C682.634705,229.867447 687.872803,243.752579 687.141541,259.542114
	C686.670410,269.714386 683.673828,278.758667 676.415283,286.192810
	C675.572327,287.056122 674.858521,288.758270 675.093384,289.855621
	C679.468994,310.300476 671.230530,325.912170 651.823059,333.623413
	C650.590088,334.113312 649.324402,334.527924 648.056885,334.922791
	C642.758057,336.573242 642.479187,337.142609 645.101685,342.174835
	C665.730347,381.758759 682.247742,422.992004 695.436462,465.632538
	C707.344666,504.133087 716.767700,543.171021 722.668884,583.040588
	C723.641418,589.610962 724.222595,596.239319 725.040771,603.327026
	C715.152405,603.327026 705.606079,603.327026 695.418213,603.327026
	C691.659851,564.639893 686.194580,525.818237 676.423462,487.838409
	C666.702332,450.052887 655.750122,412.571747 634.929688,378.901550
	C662.873169,451.213196 683.350647,525.203186 688.106812,603.113403
	C686.810913,603.360352 685.851868,603.699036 684.891663,603.702271
	C673.934875,603.739746 662.977844,603.726074 652.088806,603.726074
	C643.421204,538.324707 638.082153,472.659607 611.951477,411.339325
	C611.833618,411.062836 611.128967,411.036377 609.786316,410.589874
	C627.067566,474.070099 639.272034,537.844910 644.025513,603.327881
	C637.636475,603.327881 631.398315,603.327881 624.647827,603.327881
	C621.359070,567.742126 618.704285,531.780579 608.649902,497.023438
	C608.075439,497.094238 607.500916,497.165009 606.926453,497.235809
	C610.420044,532.447510 613.913635,567.659180 617.449402,603.295410
	C601.074585,603.295410 585.351746,603.295410 568.832397,603.295410
	C573.087585,551.800964 573.247192,500.406799 565.850769,449.852631
	C562.374329,458.206482 559.470337,467.600708 554.728882,475.951721
	C549.111389,485.845642 542.907654,495.772766 535.188049,504.031006
	C519.038513,521.307373 496.073303,520.604065 479.719971,503.297333
	C466.645264,489.460388 459.169830,472.420258 452.934174,454.750305
	C452.276764,452.887360 451.607391,451.028656 451.084167,449.562042
	C444.213348,500.378448 443.342896,551.647522 448.263733,603.383667
	C433.499207,603.383667 419.273132,603.383667 404.102539,603.383667
	C408.645935,566.408020 413.168945,529.598267 417.691956,492.788483
	C417.153137,492.713135 416.614319,492.637787 416.075500,492.562439
	C404.953766,528.541077 401.254578,565.854919 396.944305,603.386169
	C389.287262,603.386169 381.723694,603.386169 373.728668,603.386169
	C377.762543,545.100037 391.773682,488.553589 402.806061,431.493011
	C381.492950,486.839752 373.834473,545.094177 365.822601,603.424744
	C353.521118,603.424744 341.420013,603.424744 329.140381,603.424744
	C333.458252,542.162109 350.091492,484.320068 373.777924,427.616821
	C374.177612,426.526276 374.337738,426.018921 374.683136,425.260437
	C374.745728,424.653412 374.623047,424.297516 374.500397,423.941620
	C374.326874,424.287384 374.153351,424.633179 373.684723,425.033386
	C373.161224,425.636047 372.932861,426.184235 372.704498,426.732422
M614.126221,349.661072
	C613.423523,353.691010 612.720825,357.720947 611.986084,361.934753
	C629.508301,356.069611 643.013306,332.073883 638.632812,314.815002
	C637.083862,308.712006 634.450378,303.134705 628.186279,299.527802
	C628.867920,310.216064 629.510437,320.290771 630.152954,330.365479
	C629.675232,330.391510 629.197510,330.417511 628.719849,330.443542
	C627.043030,328.196747 625.366272,325.949951 623.325989,323.216125
	C619.456848,332.121796 614.320190,339.549713 614.126221,349.661072
M400.284363,336.554138
	C397.917969,332.367432 395.551544,328.180695 392.973999,323.620483
	C391.234985,325.970917 389.662079,328.096832 388.089142,330.222748
	C387.579926,330.100739 387.070709,329.978699 386.561462,329.856689
	C387.307434,319.932739 388.053406,310.008789 388.807556,299.976410
	C380.960236,303.851257 375.925140,317.730835 378.063416,329.040863
	C380.823608,343.640656 394.044403,359.841553 404.105316,360.810852
	C402.974579,352.932434 401.847839,345.081848 400.284363,336.554138
M228.591492,805.892700
	C206.320557,786.106018 173.215317,795.110168 159.851562,818.548889
	C185.896103,804.271667 211.465118,802.012146 237.012848,817.828308
	C237.344879,817.550964 237.676926,817.273621 238.008957,816.996277
	C235.048355,813.451782 232.087738,809.907227 228.591492,805.892700
M621.584900,174.886948
	C631.643127,182.982681 660.809631,214.964539 662.193542,218.911591
	C645.442627,188.349747 622.255859,165.102371 588.566345,153.632019
	C599.399963,160.554764 610.233643,167.477524 621.584900,174.886948
M425.026306,121.948318
	C425.898010,121.491745 426.769714,121.035172 427.641418,120.578598
	C427.573547,120.339874 427.505676,120.101151 427.437805,119.862427
	C419.635712,121.861702 411.833649,123.860977 404.031586,125.860245
	C404.179657,126.445709 404.327759,127.031166 404.475861,127.616631
	C411.091705,125.771255 417.707581,123.925880 425.026306,121.948318
z"/>
<path fill="#010101" opacity="1.000000" stroke="none"
	d="
M851.999878,927.826416
	C804.855469,927.826172 758.211121,927.826172 711.510986,927.826172
	C711.514038,927.846619 711.347168,927.353149 711.445923,927.292480
	C721.473206,921.136353 726.475586,911.749817 729.112427,900.626221
	C730.945312,892.893738 733.312866,885.286987 735.495850,877.639587
	C735.842346,876.425659 736.476135,875.293640 737.374512,873.195679
	C744.132141,887.681274 748.139221,901.912415 750.104675,918.093445
	C754.866882,908.692017 755.410278,899.951660 754.701233,890.961609
	C753.575500,876.688416 747.333679,864.926025 737.345154,854.923523
	C734.754395,852.329041 733.374084,842.657471 735.343933,839.741150
	C736.046875,838.700500 737.777283,838.224243 739.133057,837.775024
	C748.092834,834.805969 757.078308,831.914551 766.481995,828.859253
	C760.507812,812.776794 754.193237,797.519165 745.080505,783.524170
	C743.851746,781.637146 742.923645,779.010254 743.108398,776.832153
	C744.710449,757.941528 746.593933,739.074768 748.403625,720.201843
	C750.261719,700.823914 752.132996,681.447205 753.994812,662.069641
	C754.980957,651.805908 755.513733,641.474182 757.048096,631.293274
	C759.221069,616.874817 746.763733,604.421204 734.269653,603.919617
	C733.630371,603.893982 732.996643,603.728821 732.807312,603.699036
	C728.596924,578.730225 724.440491,554.081299 720.237732,529.157410
	C737.638916,535.312622 751.915161,545.699951 762.189758,561.433899
	C773.194702,578.286377 780.774963,596.808472 786.765625,615.793945
	C801.617798,662.863159 821.884888,707.591858 843.454956,751.823059
	C855.903931,777.350830 868.779785,802.698669 880.276917,828.653137
	C888.650513,847.556396 893.919739,867.627197 893.892517,888.588379
	C893.874756,902.288269 888.865601,914.596924 881.562622,925.982666
	C880.888184,927.034058 878.889526,927.715515 877.489502,927.742920
	C869.162292,927.905701 860.830322,927.825378 851.999878,927.826416
M779.689148,818.908813
	C804.754761,800.726562 830.247498,804.972595 856.619019,817.997742
	C852.250488,810.475037 846.584534,805.499329 839.909546,801.597229
	C817.245056,788.347778 789.137390,796.058472 778.123779,818.873779
	C778.182739,819.116516 778.241699,819.359192 778.300659,819.601929
	C778.535522,819.403320 778.770386,819.204651 779.689148,818.908813
z"/>
<path fill="#060606" opacity="1.000000" stroke="none"
	d="
M131.000900,937.689941
	C351.140961,937.603394 570.780945,937.496582 790.420959,937.447266
	C837.748047,937.436646 885.075134,937.631836 932.402222,937.741943
	C933.708191,937.744995 935.013855,937.859558 936.570557,937.934143
	C936.570557,942.034851 936.570557,945.948059 936.570557,950.157227
	C651.465698,950.157227 366.540741,950.157227 81.295044,950.157227
	C81.295044,946.112610 81.295044,942.202698 81.295044,937.690308
	C97.633087,937.690308 114.066971,937.690308 131.000900,937.689941
z"/>
<path fill="#040404" opacity="1.000000" stroke="none"
	d="
M492.555054,110.422829
	C480.845490,99.940475 467.466003,94.486824 451.472046,93.930008
	C455.934967,87.822716 461.898071,84.466438 468.442535,82.167152
	C480.538605,77.917473 492.572327,78.441612 504.567047,83.010414
	C506.577240,83.776100 509.447266,83.779968 511.404999,82.938164
	C521.839539,78.451408 532.076965,77.065460 542.629517,82.645851
	C544.672424,83.726181 547.479431,83.832382 549.888245,83.677330
	C575.064148,82.056831 591.551697,95.178207 604.770447,116.138710
	C581.057983,106.509727 558.249878,105.790443 536.115723,116.187050
	C531.790771,109.640251 527.531616,103.192986 523.272461,96.745728
	C522.842529,97.036842 522.412598,97.327957 521.982666,97.619072
	C524.597717,103.000122 527.249451,108.363747 529.814209,113.768669
	C531.399841,117.110329 531.015137,119.938957 529.074707,123.456360
	C525.742798,129.496185 523.642883,136.212418 520.977661,142.624695
	C519.624390,145.880508 518.166138,149.092712 515.918762,152.289383
	C512.649231,135.625336 504.980347,121.891113 492.555054,110.422829
M519.904053,94.325478
	C519.377869,94.238083 518.851685,94.150688 518.325500,94.063293
	C518.140503,94.316139 517.955505,94.568993 517.770508,94.821838
	C518.297485,95.081047 518.824402,95.340256 519.817444,96.261475
	C520.317078,96.488869 520.816772,96.716263 521.316406,96.943649
	C520.912048,96.257729 520.507629,95.571808 519.904053,94.325478
z"/>
<path fill="#070707" opacity="1.000000" stroke="none"
	d="
M601.913513,289.962280
	C603.039734,290.150421 603.796387,290.303589 605.681396,290.685181
	C598.311401,296.946045 592.871216,304.143097 582.724487,306.637451
	C586.194824,302.508209 589.030212,299.134460 592.286682,295.259766
	C585.882751,292.122650 579.932739,289.207916 573.135620,285.878174
	C576.048401,299.526306 571.948853,307.420166 562.354858,308.775696
	C553.368530,310.045319 546.402283,303.191528 545.801697,291.349365
	C540.698730,297.044525 536.152954,302.117828 531.607178,307.191132
	C533.091187,297.847595 537.222168,290.016968 544.574646,284.281799
	C558.892334,273.113525 577.278198,273.453979 592.650085,284.711761
	C595.408447,286.731903 598.569031,288.202820 601.913513,289.962280
z"/>
<path fill="#070707" opacity="1.000000" stroke="none"
	d="
M462.122986,278.749084
	C474.748047,284.410095 482.303223,293.731934 484.893372,307.163239
	C480.627838,302.342499 476.362335,297.521759 471.677551,292.227203
	C469.315735,304.333771 461.917236,310.515198 452.917786,308.784607
	C444.643372,307.193420 440.696655,298.769470 443.332336,285.822327
	C436.477173,289.094147 430.576111,291.910553 424.044952,295.027710
	C427.592865,299.078796 430.444977,302.335327 433.958099,306.346680
	C426.806885,304.687256 417.931641,298.240936 412.349518,291.454987
	C416.107208,289.193512 420.070831,287.115295 423.703369,284.565430
	C435.452942,276.317749 447.922302,273.224213 462.122986,278.749084
z"/>
<path fill="#070707" opacity="1.000000" stroke="none"
	d="
M463.285400,383.708771
	C462.211090,382.864532 461.095154,382.394867 460.725586,381.584747
	C460.053314,380.110931 459.824371,378.434845 459.410431,376.843170
	C461.181885,376.693695 463.614624,375.721527 464.617767,376.527863
	C471.250061,381.859131 478.450165,382.583069 486.673431,381.490784
	C492.280548,380.745972 498.169769,382.227509 503.941254,382.573334
	C506.718597,382.739716 509.519867,382.679657 512.302429,382.551636
	C519.221497,382.233276 526.214111,381.012573 533.029602,381.674255
	C539.403442,382.293091 544.849487,381.383667 550.033936,377.885345
	C551.126343,377.148254 552.278748,376.110840 553.468933,376.013733
	C554.744934,375.909668 556.628845,376.386322 557.253967,377.293854
	C557.778198,378.054901 557.321838,380.453827 556.525574,381.001038
	C552.314209,383.894989 548.132812,387.129730 543.441467,388.978943
	C516.105957,399.753998 489.333069,399.310242 463.285400,383.708771
z"/>
<path fill="#070707" opacity="1.000000" stroke="none"
	d="
M430.312622,250.187439
	C447.805573,242.140244 464.313568,244.806564 480.131500,253.665176
	C482.517609,255.001495 485.023438,258.911682 484.830444,261.428497
	C484.521881,265.452118 480.142487,266.148651 476.581238,265.950409
	C473.322021,265.768982 470.054413,265.048676 466.877075,264.229950
	C460.151215,262.496796 453.532959,260.328156 446.777435,258.732452
	C436.431152,256.288635 427.475555,259.235626 419.779816,266.434479
	C418.582947,267.554047 417.131470,268.401367 414.773895,270.121735
	C417.793610,260.688660 422.691528,254.571198 430.312622,250.187439
z"/>
<path fill="#070707" opacity="1.000000" stroke="none"
	d="
M600.978149,270.024445
	C600.812195,270.015778 600.566101,270.075775 600.491516,269.988800
	C588.021790,255.440262 572.712524,255.958664 556.408997,261.638489
	C552.812012,262.891602 549.179871,264.043915 545.561951,265.236481
	C544.777405,265.495056 543.999756,265.820831 543.192261,265.956116
	C537.806824,266.858307 532.274475,264.934906 531.586304,261.549500
	C530.515442,256.281250 534.687256,254.170227 538.310547,252.333023
	C549.235779,246.793381 560.897156,244.572983 573.077087,246.177261
	C586.969299,248.007080 596.549377,255.507004 601.310730,269.279602
	C601.221619,269.764801 600.978149,270.024445 600.978149,270.024445
z"/>
<path fill="#080808" opacity="1.000000" stroke="none"
	d="
M528.868286,353.445740
	C531.320129,352.347900 533.339233,351.127930 535.388184,349.889954
	C535.267883,356.906586 530.322144,361.381592 524.125366,364.910492
	C509.407440,373.291992 500.883209,372.551605 486.993835,361.842133
	C481.409882,357.536591 479.815125,353.527649 481.787689,346.518829
	C481.716339,353.083862 484.589783,354.765137 489.512909,353.751007
	C495.438446,352.530457 500.275482,355.020782 504.660400,358.561493
	C507.203796,360.615265 509.291504,361.229614 511.884949,358.546387
	C516.397888,353.877258 522.231567,352.895233 528.868286,353.445740
z"/>
<path fill="#0A0A0A" opacity="1.000000" stroke="none"
	d="
M521.401367,415.542847
	C509.268311,422.174805 497.754089,420.097443 489.224213,410.141235
	C501.600372,410.141235 514.107544,410.141235 527.282104,410.141235
	C525.378540,411.901093 523.533813,413.606598 521.401367,415.542847
z"/>
<path fill="#1B1B1B" opacity="1.000000" stroke="none"
	d="
M541.261169,282.738098
	C541.043640,282.234589 540.500305,281.572968 540.656616,281.250885
	C543.822632,274.726898 554.711975,270.246704 560.264160,271.982635
	C554.712280,274.973358 548.166016,278.499725 541.424561,282.350891
	C541.229309,282.675720 541.261169,282.738098 541.261169,282.738098
z"/>
<path fill="#1B1B1B" opacity="1.000000" stroke="none"
	d="
M462.629639,275.108154
	C459.751862,274.144928 457.241486,273.295563 454.940430,272.517029
	C461.966400,270.348785 471.226868,274.312103 473.911652,281.076599
	C470.134125,279.050354 466.565552,277.136200 462.629639,275.108154
z"/>
<path fill="#020202" opacity="1.000000" stroke="none"
	d="
M422.423523,201.200317
	C422.273987,201.068619 422.082916,200.925537 421.891846,200.782455
	C422.049011,200.629990 422.206207,200.477524 422.363403,200.325073
	C422.402161,200.462296 422.440887,200.599533 422.390015,200.948944
	C422.300385,201.161148 422.381958,201.188950 422.423523,201.200317
z"/>
<path fill="#1B1B1B" opacity="1.000000" stroke="none"
	d="
M541.255737,282.666260
	C541.002991,282.427246 540.723816,282.197662 540.444641,281.968079
	C540.704834,281.990967 540.964966,282.013885 541.243164,282.387451
	C541.261169,282.738098 541.229309,282.675720 541.255737,282.666260
z"/>
<path fill="#070707" opacity="1.000000" stroke="none"
	d="
M601.349304,269.640808
	C601.531372,269.891602 601.585754,270.266357 601.640137,270.641144
	C601.449097,270.605591 601.258118,270.570007 601.022583,270.279419
	C600.978149,270.024445 601.221619,269.764801 601.349304,269.640808
z"/>
<path fill="#020202" opacity="1.000000" stroke="none"
	d="
M595.652466,208.318146
	C595.380859,208.058701 595.274597,207.652893 595.168335,207.247070
	C595.435059,207.259018 595.701782,207.270950 596.050903,207.572906
	C596.133301,207.862915 595.817749,208.171783 595.652466,208.318146
z"/>
<path fill="#FCFCFC" opacity="1.000000" stroke="none"
	d="
M523.168152,750.781372
	C530.819153,758.529480 532.452332,768.197327 527.812561,776.932373
	C523.426819,785.189148 513.814697,790.259644 505.508575,788.697937
	C495.254486,786.770020 487.687073,779.072327 486.556793,768.985474
	C485.647339,760.869629 488.867859,754.340454 495.389587,749.595642
	C502.020172,744.771545 509.291382,743.514587 516.969849,746.945251
	C519.063354,747.880554 520.929443,749.324829 523.168152,750.781372
z"/>
<path fill="#F8F8F8" opacity="1.000000" stroke="none"
	d="
M614.197144,349.232849
	C614.320190,339.549713 619.456848,332.121796 623.325989,323.216125
	C625.366272,325.949951 627.043030,328.196747 628.719849,330.443542
	C629.197510,330.417511 629.675232,330.391510 630.152954,330.365479
	C629.510437,320.290771 628.867920,310.216064 628.186279,299.527802
	C634.450378,303.134705 637.083862,308.712006 638.632812,314.815002
	C643.013306,332.073883 629.508301,356.069611 611.986084,361.934753
	C612.720825,357.720947 613.423523,353.691010 614.197144,349.232849
z"/>
<path fill="#F9F9F9" opacity="1.000000" stroke="none"
	d="
M400.502747,336.892700
	C401.847839,345.081848 402.974579,352.932434 404.105316,360.810852
	C394.044403,359.841553 380.823608,343.640656 378.063416,329.040863
	C375.925140,317.730835 380.960236,303.851257 388.807556,299.976410
	C388.053406,310.008789 387.307434,319.932739 386.561462,329.856689
	C387.070709,329.978699 387.579926,330.100739 388.089142,330.222748
	C389.662079,328.096832 391.234985,325.970917 392.973999,323.620483
	C395.551544,328.180695 397.917969,332.367432 400.502747,336.892700
z"/>
<path fill="#F7F7F7" opacity="1.000000" stroke="none"
	d="
M228.859314,806.127686
	C232.087738,809.907227 235.048355,813.451782 238.008957,816.996277
	C237.676926,817.273621 237.344879,817.550964 237.012848,817.828308
	C211.465118,802.012146 185.896103,804.271667 159.851562,818.548889
	C173.215317,795.110168 206.320557,786.106018 228.859314,806.127686
z"/>
<path fill="#E9E8E9" opacity="1.000000" stroke="none"
	d="
M621.326111,174.643616
	C610.233643,167.477524 599.399963,160.554764 588.566345,153.632019
	C622.255859,165.102371 645.442627,188.349747 662.193542,218.911591
	C660.809631,214.964539 631.643127,182.982681 621.326111,174.643616
z"/>
<path fill="#C1C1C1" opacity="1.000000" stroke="none"
	d="
M424.674866,122.014412
	C417.707581,123.925880 411.091705,125.771255 404.475861,127.616631
	C404.327759,127.031166 404.179657,126.445709 404.031586,125.860245
	C411.833649,123.860977 419.635712,121.861702 427.437805,119.862427
	C427.505676,120.101151 427.573547,120.339874 427.641418,120.578598
	C426.769714,121.035172 425.898010,121.491745 424.674866,122.014412
z"/>
<path fill="#FEFEFE" opacity="1.000000" stroke="none"
	d="
M372.951843,426.932190
	C372.932861,426.184235 373.161224,425.636047 373.810974,425.169739
	C374.232330,425.251617 374.497894,425.511597 374.497864,425.511597
	C374.337738,426.018921 374.177612,426.526276 373.873657,427.257996
	C373.552979,427.365570 373.376099,427.248749 372.951843,426.932190
z"/>
<path fill="#FEFEFE" opacity="1.000000" stroke="none"
	d="
M374.106079,425.115295
	C374.153351,424.633179 374.326874,424.287384 374.500397,423.941620
	C374.623047,424.297516 374.745728,424.653412 374.683167,425.260437
	C374.497894,425.511597 374.232330,425.251617 374.106079,425.115295
z"/>
<path fill="#F7F7F7" opacity="1.000000" stroke="none"
	d="
M778.367432,818.435242
	C789.137390,796.058472 817.245056,788.347778 839.909546,801.597229
	C846.584534,805.499329 852.250488,810.475037 856.619019,817.997742
	C830.247498,804.972595 804.754761,800.726562 779.199097,818.802002
	C778.709106,818.695129 778.367432,818.435242 778.367432,818.435242
z"/>
<path fill="#F7F7F7" opacity="1.000000" stroke="none"
	d="
M778.857178,818.850586
	C778.770386,819.204651 778.535522,819.403320 778.300659,819.601929
	C778.241699,819.359192 778.182739,819.116516 778.245605,818.654541
	C778.367432,818.435242 778.709106,818.695129 778.857178,818.850586
z"/>
<path fill="#FEFEFE" opacity="1.000000" stroke="none"
	d="
M520.103210,94.885887
	C520.507629,95.571808 520.912048,96.257729 521.316406,96.943657
	C520.816772,96.716263 520.317078,96.488869 519.776855,95.756760
	C519.858582,95.129997 519.980896,95.007942 520.103210,94.885887
z"/>
<path fill="#FEFEFE" opacity="1.000000" stroke="none"
	d="
M519.543823,95.425758
	C518.824402,95.340256 518.297485,95.081047 517.770508,94.821838
	C517.955505,94.568993 518.140503,94.316139 518.325500,94.063293
	C518.851685,94.150688 519.377869,94.238083 520.003662,94.605682
	C519.980896,95.007942 519.858582,95.129997 519.543823,95.425758
z"/>
</svg>
